<svg xmlns="http://www.w3.org/2000/svg" version="1.1" viewBox="-5.0 -10.0 110.0 135.0" >
 <path fill="#eeeeef" d="m88.5 17.375c-8.6836 8.0117-29.688 27.492-36.938 34.188-0.88281 0.8125-2.2422 0.8125-3.125 0-7.2812-6.75-28.438-26.312-36.938-34.188 0.41797-0.11719 0.84766-0.16797 1.2812-0.15625h74.438c0.43359-0.011719 0.86328 0.039062 1.2812 0.15625zm4.5312 4.3125c-8.7773 8.1562-29.84 27.629-37.219 34.469-1.582 1.4648-3.6562 2.2773-5.8125 2.2812-2.1602 0-4.2422-0.82812-5.8125-2.3125-7.375-6.7812-28.938-26.75-37.219-34.438-0.15234 0.50781-0.22656 1.0352-0.21875 1.5625v53.5c-0.003906 1.6016 0.62891 3.1367 1.7617 4.2695 1.1328 1.1328 2.668 1.7656 4.2695 1.7617h74.438c1.6016 0.003906 3.1367-0.62891 4.2695-1.7617 1.1328-1.1328 1.7656-2.668 1.7617-4.2695v-53.5c0.007812-0.52734-0.066406-1.0547-0.21875-1.5625z"/>
<text x="0.0" y="117.5" font-size="5.0" font-weight="bold" font-family="Arbeit Regular, Helvetica, Arial-Unicode, Arial, Sans-serif" fill="#1e152a"></text><text x="0.0" y="122.5" font-size="5.0" font-weight="bold" font-family="Arbeit Regular, Helvetica, Arial-Unicode, Arial, Sans-serif" fill="#1e152a"></text></svg>