<svg xmlns="http://www.w3.org/2000/svg" viewBox="0 0 24 30" fill="#1e152a" x="0px" y="0px"><path fill-rule="evenodd" clip-rule="evenodd" d="M3.25 6.5C3.25 6.08579 3.58579 5.75 4 5.75H20C20.4142 5.75 20.75 6.08579 20.75 6.5C20.75 6.91421 20.4142 7.25 20 7.25H4C3.58579 7.25 3.25 6.91421 3.25 6.5Z" fill="#1e152a"/><path fill-rule="evenodd" clip-rule="evenodd" d="M3.25 12C3.25 11.5858 3.58579 11.25 4 11.25H20C20.4142 11.25 20.75 11.5858 20.75 12C20.75 12.4142 20.4142 12.75 20 12.75H4C3.58579 12.75 3.25 12.4142 3.25 12Z" fill="#1e152a"/><path fill-rule="evenodd" clip-rule="evenodd" d="M3.25 17.5C3.25 17.0858 3.58579 16.75 4 16.75H20C20.4142 16.75 20.75 17.0858 20.75 17.5C20.75 17.9142 20.4142 18.25 20 18.25H4C3.58579 18.25 3.25 17.9142 3.25 17.5Z" fill="#1e152a"/><text x="0" y="39" fill="#1e152a" font-size="5px" font-weight="bold" font-family="'Helvetica Neue', Helvetica, Arial-Unicode, Arial, Sans-serif"></text><text x="0" y="44" fill="#000000" font-size="5px" font-weight="bold" font-family="'Helvetica Neue', Helvetica, Arial-Unicode, Arial, Sans-serif"></text></svg>